<?xml version="1.0" encoding="UTF-8" standalone="no"?>
<!-- Created with Inkscape (http://www.inkscape.org/) -->

<svg
   width="146.70653mm"
   height="34.37817mm"
   viewBox="0 0 146.70653 34.37817"
   version="1.1"
   id="svg1"
   inkscape:version="1.4.2 (ebf0e940d0, 2025-05-08)"
   sodipodi:docname="404.svg"
   xmlns:inkscape="http://www.inkscape.org/namespaces/inkscape"
   xmlns:sodipodi="http://sodipodi.sourceforge.net/DTD/sodipodi-0.dtd"
   xmlns="http://www.w3.org/2000/svg"
   xmlns:svg="http://www.w3.org/2000/svg">
  <sodipodi:namedview
     id="namedview1"
     pagecolor="#ffffff"
     bordercolor="#666666"
     borderopacity="1.0"
     inkscape:showpageshadow="2"
     inkscape:pageopacity="0.0"
     inkscape:pagecheckerboard="0"
     inkscape:deskcolor="#d1d1d1"
     inkscape:document-units="mm"
     showguides="true"
     inkscape:zoom="0.94448118"
     inkscape:cx="104.81945"
     inkscape:cy="119.64241"
     inkscape:window-width="1915"
     inkscape:window-height="1034"
     inkscape:window-x="0"
     inkscape:window-y="0"
     inkscape:window-maximized="1"
     inkscape:current-layer="layer1" />
  <defs
     id="defs1" />
  <g
     inkscape:label="Layer 1"
     inkscape:groupmode="layer"
     id="layer1"
     transform="translate(-31.646739,-67.96891)">
    <g
       id="g11"
       transform="translate(1.1236436,-35.911967)">
      <path
         style="fill:#000000;fill-opacity:1;stroke:#000000;stroke-width:0.600001;stroke-linecap:round;stroke-linejoin:bevel"
         d="m 102.3712,114.25262 c 9.07533,-3.12925 15.40879,2.64959 15.31338,6.33883 -0.10094,3.9033 -4.92843,6.25659 -6.12558,6.70123 3.19439,-1.57587 3.39771,-6.15255 2.79044,-8.07031 -0.6631,-2.09407 -4.83961,-7.57313 -11.97824,-4.96975 z"
         id="path10"
         sodipodi:nodetypes="cscsc" />
      <path
         style="fill:#000000;fill-opacity:1;stroke:#000000;stroke-width:0.600001;stroke-linecap:round;stroke-linejoin:bevel"
         d="m 112.56171,126.93028 c -9.07533,3.12925 -15.408788,-2.64959 -15.313378,-6.33883 0.10094,-3.9033 4.928428,-6.25659 6.125578,-6.70123 -3.19439,1.57587 -3.397712,6.15255 -2.79044,8.07031 0.6631,2.09407 4.83961,7.57313 11.97824,4.96975 z"
         id="path10-2"
         sodipodi:nodetypes="cscsc" />
      <path
         style="fill:none;stroke:#000000;stroke-width:0.600001;stroke-linecap:round;stroke-linejoin:bevel"
         d="m 117.68458,120.59145 c 1e-5,4.03789 -4.57481,7.31125 -10.21813,7.31125 -5.64332,0 -10.218124,-3.27336 -10.218118,-7.31125 10e-7,-4.03789 4.574808,-7.31124 10.218118,-7.31124 5.64332,0 10.21813,3.27335 10.21813,7.31124 z"
         id="path9" />
    </g>
    <path
       style="fill:none;stroke:#000000;stroke-width:0.6;stroke-linecap:butt;stroke-linejoin:miter;stroke-dasharray:none;stroke-opacity:1"
       d="M 31.646739,74.608694 H 178.35326"
       id="path1" />
    <path
       style="fill:none;stroke:#000000;stroke-width:0.6;stroke-linecap:butt;stroke-linejoin:miter;stroke-dasharray:none;stroke-opacity:1"
       d="M 31.646739,79.644088 H 178.35326"
       id="path1-9" />
    <path
       style="fill:none;stroke:#000000;stroke-width:0.6;stroke-linecap:butt;stroke-linejoin:miter;stroke-dasharray:none;stroke-opacity:1"
       d="M 31.64674,89.714877 H 178.35326"
       id="path1-93" />
    <path
       style="fill:none;stroke:#000000;stroke-width:0.6;stroke-linecap:butt;stroke-linejoin:miter;stroke-dasharray:none;stroke-opacity:1"
       d="M 31.64674,84.679483 H 178.35326"
       id="path1-6" />
    <path
       style="fill:none;stroke:#000000;stroke-width:0.6;stroke-linecap:butt;stroke-linejoin:miter;stroke-dasharray:none;stroke-opacity:1"
       d="M 31.64674,94.750272 H 178.35326"
       id="path1-2" />
    <g
       id="g6"
       transform="translate(-3.0405339,-31.13414)">
      <path
         style="fill:#000000;fill-opacity:1;stroke:#000000;stroke-width:0.600001;stroke-linecap:round;stroke-linejoin:bevel;stroke-dasharray:none;stroke-opacity:1"
         d="m 45.033383,101.21777 c -1.217894,0.37469 -1.92397,6.10602 -1.759122,9.19796 -0.378192,-2.99 -0.155815,-10.46901 1.676779,-10.7945 1.02454,-0.18197 2.108273,3.96648 2.179799,5.42187 -0.08472,-1.56902 -0.966407,-4.17331 -2.097456,-3.82533 z"
         id="path6"
         sodipodi:nodetypes="scscs" />
      <path
         style="fill:#000000;fill-opacity:1;stroke:#000000;stroke-width:0.600001;stroke-linecap:round;stroke-linejoin:bevel;stroke-dasharray:none;stroke-opacity:1"
         d="m 40.601729,116.13623 c -0.998148,1.44873 -1.368467,2.95078 -1.450479,4.84449 0.684302,-4.51273 3.355765,-4.06362 6.00201,-7.88435 2.075885,-2.99722 1.920577,-5.94335 1.977579,-8.05327 -0.02047,3.9813 -4.493927,8.13923 -6.52911,11.09313 z"
         id="path5"
         sodipodi:nodetypes="scscs" />
      <path
         style="fill:#000000;fill-opacity:1;stroke:#000000;stroke-width:0.600001;stroke-linecap:round;stroke-linejoin:bevel;stroke-dasharray:none;stroke-opacity:1"
         d="m 43.909588,117.58552 c -0.48687,0.17629 -1.188289,1.13646 -1.437261,1.72694 -0.248972,0.59047 -0.09815,2.12679 -0.05609,2.34143 -0.0047,-1.54852 1.197186,-2.85004 2.228796,-2.97648 0.963657,-0.11812 3.22568,0.0654 3.460685,2.41699 -0.08368,-1.43435 -1.004379,-2.8542 -1.449135,-3.14574 -0.616805,-0.40431 -1.537643,-0.71859 -2.747,-0.36314 z"
         id="path3-5"
         sodipodi:nodetypes="sscscsss" />
      <path
         style="fill:none;stroke:#000000;stroke-width:0.600001;stroke-linecap:round;stroke-linejoin:bevel;stroke-dasharray:none;stroke-opacity:1"
         d="m 42.416238,121.65389 c -0.692078,-2.23595 0.678146,-4.38322 2.633399,-4.28153 1.955252,0.10169 3.085035,1.46568 3.039184,3.69814 -0.04585,2.23245 -2.206769,3.69213 -4.36177,3.72768 -2.155002,0.0356 -5.03517,-1.59363 -4.567626,-5.25736 0.680303,-5.33096 7.594106,-8.17888 7.952195,-14.26479 0.148999,-2.53232 -0.849866,-6.091573 -2.362463,-5.86301 -1.512596,0.228562 -1.929523,6.97016 -1.561567,10.27802 0.765874,6.88506 3.63734,16.96502 2.464249,20.59749 -0.63396,1.96306 -2.705813,2.83003 -3.69104,2.88539 -2.161177,0.12144 -3.19414,-1.24924 -3.300614,-2.42045"
         id="path3"
         sodipodi:nodetypes="czzzsszsssc" />
      <circle
         style="fill:#000000;fill-opacity:1;stroke:#000000;stroke-width:0.600001;stroke-linejoin:bevel;stroke-dasharray:none;stroke-opacity:1"
         id="path4"
         cx="40.417"
         cy="130.75346"
         r="1.756815" />
    </g>
    <g
       id="g14">
      <path
         style="fill:none;stroke:#000000;stroke-width:0.931668;stroke-linecap:round;stroke-linejoin:miter;stroke-dasharray:none;stroke-opacity:1"
         d="M 83.432714,69.09728 V 97.19647"
         id="path7"
         sodipodi:nodetypes="cc" />
      <path
         style="fill:#000000;fill-opacity:1;stroke:#000000;stroke-width:0.93167;stroke-linecap:round;stroke-linejoin:bevel;stroke-dasharray:none;stroke-opacity:1"
         d="M 83.432714,69.09728 C 77.684855,73.56033 75.322627,82.27131 68.357576,86.93721 80.490333,83.46294 79.860486,76.09582 83.432714,69.09728 Z"
         id="path8"
         sodipodi:nodetypes="ccc" />
      <path
         style="fill:#000000;fill-opacity:1;stroke:#000000;stroke-width:0.93167;stroke-linecap:round;stroke-linejoin:bevel;stroke-dasharray:none;stroke-opacity:1"
         d="m 83.432714,83.62115 c -5.071641,3.92208 -10.0035,-0.2679 -15.075138,3.31606 5.911545,-3.00092 9.812364,1.38334 15.075138,-3.31606 z"
         id="path8-5"
         sodipodi:nodetypes="ccc" />
      <ellipse
         style="fill:#000000;fill-opacity:1;stroke:#000000;stroke-width:1;stroke-linecap:round;stroke-linejoin:bevel;stroke-dasharray:none;stroke-opacity:1"
         id="path12"
         cx="80.095001"
         cy="97.196472"
         rx="3.3377128"
         ry="1.9850609" />
    </g>
    <g
       id="g15">
      <path
         style="fill:none;stroke:#000000;stroke-width:0.931668;stroke-linecap:round;stroke-linejoin:miter;stroke-dasharray:none;stroke-opacity:1"
         d="M 144.67709,69.09728 V 97.19647"
         id="path7-0"
         sodipodi:nodetypes="cc" />
      <path
         style="fill:#000000;fill-opacity:1;stroke:#000000;stroke-width:0.93167;stroke-linecap:round;stroke-linejoin:bevel;stroke-dasharray:none;stroke-opacity:1"
         d="m 144.67709,69.09728 c -5.74786,4.46305 -8.11009,13.17403 -15.07514,17.83993 12.13276,-3.47427 11.50291,-10.84139 15.07514,-17.83993 z"
         id="path8-6"
         sodipodi:nodetypes="ccc" />
      <path
         style="fill:#000000;fill-opacity:1;stroke:#000000;stroke-width:0.93167;stroke-linecap:round;stroke-linejoin:bevel;stroke-dasharray:none;stroke-opacity:1"
         d="m 144.67709,83.62115 c -5.07164,3.92208 -10.0035,-0.2679 -15.07514,3.31606 5.91155,-3.00092 9.81237,1.38334 15.07514,-3.31606 z"
         id="path8-5-4"
         sodipodi:nodetypes="ccc" />
      <ellipse
         style="fill:#000000;fill-opacity:1;stroke:#000000;stroke-width:1;stroke-linecap:round;stroke-linejoin:bevel;stroke-dasharray:none;stroke-opacity:1"
         id="path12-9"
         cx="141.33937"
         cy="97.196472"
         rx="3.3377128"
         ry="1.9850609" />
    </g>
  </g>
</svg>
