<?xml version="1.0" encoding="UTF-8" standalone="no"?>
<!-- Created with Inkscape (http://www.inkscape.org/) -->

<svg
   width="176.38889mm"
   height="176.38902mm"
   viewBox="0 0 176.38889 176.38902"
   version="1.1"
   id="svg1"
   inkscape:version="1.4.2 (ebf0e940d0, 2025-05-08)"
   sodipodi:docname="facebook.svg"
   xmlns:inkscape="http://www.inkscape.org/namespaces/inkscape"
   xmlns:sodipodi="http://sodipodi.sourceforge.net/DTD/sodipodi-0.dtd"
   xmlns="http://www.w3.org/2000/svg"
   xmlns:svg="http://www.w3.org/2000/svg">
  <sodipodi:namedview
     id="namedview1"
     pagecolor="#ffffff"
     bordercolor="#666666"
     borderopacity="1.0"
     inkscape:showpageshadow="2"
     inkscape:pageopacity="0.0"
     inkscape:pagecheckerboard="0"
     inkscape:deskcolor="#d1d1d1"
     inkscape:document-units="mm"
     inkscape:zoom="0.73762626"
     inkscape:cx="286.05272"
     inkscape:cy="361.97193"
     inkscape:window-width="1915"
     inkscape:window-height="1034"
     inkscape:window-x="0"
     inkscape:window-y="0"
     inkscape:window-maximized="1"
     inkscape:current-layer="layer1" />
  <defs
     id="defs1" />
  <g
     inkscape:label="Layer 1"
     inkscape:groupmode="layer"
     id="layer1"
     transform="translate(-29.36875,-52.65208)">
    <path
       id="path1"
       d="m 205.75763,140.84652 c 0,-48.708378 -39.48606,-88.19444 -88.19444,-88.19444 -48.708378,0 -88.19444,39.486062 -88.19444,88.19444 0,41.36143 28.474457,76.06665 66.88878,85.59729 V 167.79733 H 78.071131 V 140.84652 H 96.25753 v -11.61309 c 0,-30.018566 13.58477,-43.932121 43.05582,-43.932121 5.58729,0 15.22836,1.095375 19.17241,2.191103 v 24.431268 c -2.08174,-0.21907 -5.69701,-0.32879 -10.18892,-0.32879 -14.46142,0 -20.04907,5.47794 -20.04907,19.72028 v 9.53135 h 28.80748 l -4.94877,26.95081 h -23.85871 v 60.59769 c 43.66895,-5.27438 77.50986,-42.45715 77.50986,-87.5485"
       style="fill:#0866ff;fill-opacity:1;fill-rule:nonzero;stroke:none;stroke-width:0.352778"
       clip-path="none"
       mask="none" />
    <path
       id="path3"
       d="m 152.10631,167.79747 4.94912,-26.95081 h -28.80748 v -9.5317 c 0,-14.24235 5.58729,-19.71993 20.04871,-19.71993 4.49192,0 8.10719,0.10937 10.18893,0.32844 V 87.492552 c -3.94406,-1.095728 -13.58512,-2.191456 -19.17241,-2.191456 -29.4707,0 -43.055823,13.913908 -43.055823,43.932474 v 11.61309 H 78.070958 v 26.95081 h 18.186399 v 58.64648 c 6.823783,1.69263 13.958713,2.59715 21.305663,2.59715 3.61738,0 7.18185,-0.22296 10.68493,-0.64594 v -60.59769 z"
       style="fill:#ffffff;fill-opacity:1;fill-rule:nonzero;stroke:none;stroke-width:0.352778"
       clip-path="none"
       mask="none" />
  </g>
</svg>
