<?xml version="1.0" encoding="UTF-8" standalone="no"?>
<!-- Created with Inkscape (http://www.inkscape.org/) -->

<svg
   version="1.1"
   id="svg1"
   width="928.47998"
   height="604.79999"
   viewBox="0 0 928.47998 604.79999"
   sodipodi:docname="Bærum Salongorkester Logo ORGINAL.svg"
   inkscape:version="1.4.2 (ebf0e940d0, 2025-05-08)"
   xmlns:inkscape="http://www.inkscape.org/namespaces/inkscape"
   xmlns:sodipodi="http://sodipodi.sourceforge.net/DTD/sodipodi-0.dtd"
   xmlns="http://www.w3.org/2000/svg"
   xmlns:svg="http://www.w3.org/2000/svg">
  <defs
     id="defs1" />
  <sodipodi:namedview
     id="namedview1"
     pagecolor="#ffffff"
     bordercolor="#666666"
     borderopacity="1.0"
     inkscape:showpageshadow="2"
     inkscape:pageopacity="0.0"
     inkscape:pagecheckerboard="0"
     inkscape:deskcolor="#d1d1d1"
     inkscape:zoom="1.8578753"
     inkscape:cx="463.97087"
     inkscape:cy="302.22696"
     inkscape:window-width="3830"
     inkscape:window-height="2067"
     inkscape:window-x="0"
     inkscape:window-y="0"
     inkscape:window-maximized="1"
     inkscape:current-layer="g1">
    <inkscape:page
       x="0"
       y="0"
       inkscape:label="1"
       id="page1"
       width="928.47998"
       height="604.79999"
       margin="0"
       bleed="0" />
  </sodipodi:namedview>
  <g
     id="g1"
     inkscape:groupmode="layer"
     inkscape:label="1">
    <g
       id="group-R5">
      <path
         id="path2"
         d="m 2523.08,177.039 c -5.72,2.789 -6.12,4.391 -6.12,15.191 0,19.989 1.63,36 2.04,42.391 0.4,4.399 1.22,6.399 3.26,6.399 2.45,0 2.86,-1.2 2.86,-4.391 0,-3.609 0,-9.199 1.22,-14.809 6.12,-29.59 33.05,-40.789 60.39,-40.789 39.17,0 58.34,27.598 58.34,53.188 0,27.601 -11.83,43.601 -46.92,71.992 l -18.36,14.801 c -43.25,34.797 -53.04,59.59 -53.04,86.777 0,42.789 32.64,71.992 84.46,71.992 15.91,0 27.75,-1.601 37.95,-3.992 7.75,-1.609 11.01,-2.008 14.28,-2.008 3.26,0 4.07,-0.801 4.07,-2.801 0,-2 -1.63,-15.191 -1.63,-42.39 0,-6.399 -0.81,-9.199 -2.85,-9.199 -2.45,0 -2.86,2 -3.26,5.199 -0.41,4.801 -2.86,15.601 -5.31,20 -2.45,4.398 -13.46,21.199 -51,21.199 -28.16,0 -50.19,-17.199 -50.19,-46.398 0,-22.789 10.61,-37.2 49.78,-67.192 l 11.42,-8.801 c 48.15,-37.187 59.57,-61.988 59.57,-93.976 0,-16.402 -6.53,-46.793 -34.68,-66.391 -17.54,-12 -39.57,-16.793 -61.61,-16.793 -19.18,0 -37.95,2.793 -54.67,10.801"
         style="fill:#5e5a57;fill-opacity:1;fill-rule:nonzero;stroke:none"
         transform="matrix(0.13333333,0,0,-0.13333333,0,604.8)" />
      <path
         id="path3"
         d="m 2864.99,283.41 c 1.63,0 1.63,1.199 1.22,2.41 l -32.24,88.371 c -2.04,5.61 -2.45,5.61 -4.48,0 l -30.61,-88.371 c -0.81,-1.609 0,-2.41 0.82,-2.41 z m -69.37,-13.988 c -2.04,0 -3.27,-1.203 -4.08,-3.203 l -17.95,-49.989 c -4.08,-11.21 -6.94,-22 -6.94,-28.402 0,-7.199 4.49,-10.398 13.47,-10.398 1.22,0 1.63,0 2.85,0 3.68,0 4.9,-1.192 4.9,-2.801 0,-2 -3.27,-2.801 -6.12,-2.801 -8.98,0 -27.75,1.203 -32.24,1.203 -4.08,0 -22.03,-1.203 -39.17,-1.203 -4.49,0 -6.53,0.801 -6.53,2.801 0,1.609 1.64,2.801 4.9,2.801 2.04,0 5.71,0 8.16,0.398 17.55,1.602 24.48,14.801 31.42,31.602 l 81.6,210.761 c 4.49,11.598 5.72,13.59 8.57,13.59 2.04,0 3.67,-1.59 8.16,-12.793 5.71,-13.199 61.21,-152.769 82.83,-202.758 13.47,-31.601 25.3,-36.8 31.01,-38.8 5.31,-2 11.01,-2 13.87,-2 2.86,0 4.9,-0.789 4.9,-2.801 0,-2 -1.63,-2.801 -6.12,-2.801 -4.08,0 -34.68,0 -62.02,0.801 -7.75,0.402 -10.2,0.801 -10.2,2.801 0,1.211 1.22,2.398 2.86,2.8 1.63,0.801 4.08,2.801 1.63,8.801 l -32.24,80.387 c -0.81,1.203 -1.63,2.004 -3.26,2.004 h -74.26"
         style="fill:#5e5a57;fill-opacity:1;fill-rule:nonzero;stroke:none"
         transform="matrix(0.13333333,0,0,-0.13333333,0,604.8)" />
      <path
         id="path4"
         d="m 3067.75,269.82 c 0,-46 1.64,-69.191 8.57,-75.59 6.53,-5.601 14.69,-8 42.85,-8 17.95,0 34.27,0 43.25,11.2 4.07,5.992 6.93,14 7.75,20 0.41,3.191 1.22,4.789 3.26,4.789 1.63,0 2.45,-1.199 2.45,-5.188 0,-4.011 -2.45,-26.801 -4.89,-36 -2.45,-8 -2.04,-10 -21.63,-10 -27.74,0 -58.35,2 -99.15,2 -13.46,0 -21.63,-1.203 -35.9,-1.203 -4.09,0 -6.53,0.801 -6.53,3.203 0,1.207 1.22,2.399 4.49,2.399 3.26,0 6.52,0 9.79,0.8 6.93,1.2 9.38,9.2 10.61,18.801 2.44,15.188 1.63,42.789 1.63,73.59 v 59.988 c 0,52.782 0,61.582 -0.82,72.379 -0.81,11.203 -2.44,18.403 -16.32,20 -2.45,0.403 -6.94,0.403 -10.2,0.403 -2.85,0 -4.49,1.199 -4.49,2.8 0,2 2.04,2.797 6.12,2.797 17.14,0 41.62,-1.199 42.44,-1.199 5.71,0 30.6,1.199 42.02,1.199 4.08,0 5.3,-1.199 5.3,-2.797 0,-1.601 -2.03,-2.8 -4.48,-2.8 -2.86,0 -6.94,-0.403 -11.02,-0.801 -11.42,-1.602 -13.87,-8 -14.69,-19.602 -0.81,-10.797 -0.41,-19.597 -0.41,-72.379 V 269.82"
         style="fill:#5e5a57;fill-opacity:1;fill-rule:nonzero;stroke:none"
         transform="matrix(0.13333333,0,0,-0.13333333,0,604.8)" />
      <path
         id="path5"
         d="m 3459.44,296.219 c 0,80.383 -50.6,125.172 -106.5,125.172 -56.71,0 -102.41,-34.391 -102.41,-109.981 0,-78.39 44.48,-130.379 113.02,-130.379 27.34,0 95.89,13.59 95.89,115.188 z m -246.85,4.793 c 0,53.187 42.02,132.769 142.81,132.769 80.78,0 142.39,-47.179 142.39,-127.57 0,-76.391 -57.53,-138.77 -144.44,-138.77 -99.96,0 -140.76,72.778 -140.76,133.571"
         style="fill:#5e5a57;fill-opacity:1;fill-rule:nonzero;stroke:none"
         transform="matrix(0.13333333,0,0,-0.13333333,0,604.8)" />
      <path
         id="path6"
         d="m 3578.15,417.391 c 0,12.398 1.23,16.39 4.49,16.39 2.86,0 9.8,-7.992 12.65,-10.793 3.68,-4 60.39,-60.789 117.51,-117.976 31.82,-30.403 72.63,-71.59 83.25,-81.192 l -4.5,166.379 c -0.41,21.59 -2.85,28.789 -13.87,31.59 -6.94,1.199 -13.06,1.602 -15.92,1.602 -4.08,0 -4.89,1.597 -4.89,3.199 0,2 3.26,2.398 7.34,2.398 17.54,0 34.69,-1.199 38.36,-1.199 4.08,0 16.73,1.199 32.65,1.199 4.48,0 5.71,-0.398 5.71,-2.398 0,-1.602 -1.23,-2.801 -3.67,-3.199 -2.46,-0.403 -5.72,-0.403 -10.21,-1.2 -9.38,-2 -12.24,-5.992 -12.24,-30 l -0.82,-200.761 c 0,-20 -0.81,-22 -3.67,-22 -2.85,0 -6.93,2.8 -26.94,21.199 -1.63,0.801 -58.34,55.992 -93.83,89.98 -42.44,43.192 -83.24,84.789 -93.44,95.192 l 5.3,-156.371 c 0.82,-27.602 3.27,-38 13.47,-40.399 6.53,-1.601 13.46,-1.601 16.73,-1.601 3.26,0 4.89,-1.192 4.89,-2.801 0,-2 -2.04,-2.801 -6.53,-2.801 -22.03,0 -36.72,1.203 -39.57,1.203 -2.86,0 -17.96,-1.203 -35.5,-1.203 -3.67,0 -6.13,0.402 -6.13,2.801 0,1.609 1.64,2.801 5.72,2.801 2.85,0 7.34,0 12.65,1.601 8.97,2.797 11.01,13.598 11.01,42.789 0,190.77 0.41,129.18 0,195.571"
         style="fill:#5e5a57;fill-opacity:1;fill-rule:nonzero;stroke:none"
         transform="matrix(0.13333333,0,0,-0.13333333,0,604.8)" />
      <path
         id="path7"
         d="m 4139.57,201.43 c 0,-16 -0.4,-16.399 -4.89,-18.801 -22.44,-11.199 -55.08,-15.188 -75.08,-15.188 -26.52,0 -77.93,1.989 -119.55,35.981 -22.03,18 -44.06,51.59 -44.06,97.187 0,54.403 28.15,93.18 61.61,112.782 31.41,18 66.09,20.39 90.98,20.39 26.12,0 43.67,-3.191 58.35,-5.59 6.53,-1.203 22.45,-3.203 31.01,-3.601 3.27,0 3.27,-1.602 3.27,-3.199 0,-4.801 -2.86,-16.801 -2.86,-51.993 0,-5.597 -0.41,-7.199 -3.26,-7.199 -2.04,0 -2.45,2.403 -2.86,4.801 0,3.602 -1.63,15.988 -7.76,24.789 -9.37,13.211 -38.76,28 -84.45,28 -22.03,0 -47.74,-0.801 -75.08,-21.187 -20.81,-15.614 -34.28,-46 -34.28,-85.59 0,-47.59 26.53,-82.793 37.13,-92.793 26.94,-25.598 57.13,-37.188 92.63,-37.188 11.43,0 29.38,2 38.76,6.797 4.08,2.402 6.93,6.402 6.93,12 v 57.594 c 0,26.398 -2.04,31.59 -16.31,33.59 -2.46,0.398 -6.53,0.797 -9.8,0.797 -3.26,0 -4.89,1.613 -4.89,2.812 0,1.988 1.63,2.789 6.12,2.789 16.32,0 39.98,-0.801 41.61,-0.801 1.63,0 25.71,0.801 36.73,0.801 4.07,0 5.71,-0.801 5.71,-2.789 0,-1.199 -1.23,-2.812 -4.9,-2.812 -2.85,0 -3.67,0 -6.93,-0.399 -9.8,-1.199 -12.24,-8.398 -13.06,-20 -0.82,-11.59 -0.82,-21.59 -0.82,-35.992 V 201.43"
         style="fill:#5e5a57;fill-opacity:1;fill-rule:nonzero;stroke:none"
         transform="matrix(0.13333333,0,0,-0.13333333,0,604.8)" />
      <path
         id="path8"
         d="m 4458.62,296.219 c 0,80.383 -50.59,125.172 -106.49,125.172 -56.72,0 -102.41,-34.391 -102.41,-109.981 0,-78.39 44.47,-130.379 113.01,-130.379 27.34,0 95.89,13.59 95.89,115.188 z m -246.85,4.793 c 0,53.187 42.02,132.769 142.8,132.769 80.79,0 142.4,-47.179 142.4,-127.57 0,-76.391 -57.53,-138.77 -144.43,-138.77 -99.97,0 -140.77,72.778 -140.77,133.571"
         style="fill:#5e5a57;fill-opacity:1;fill-rule:nonzero;stroke:none"
         transform="matrix(0.13333333,0,0,-0.13333333,0,604.8)" />
      <path
         id="path9"
         d="m 4620.19,302.211 c 0,-2 0.41,-4 2.04,-4.801 5.3,-2.801 21.62,-5.199 36.31,-5.199 8.57,0 18.76,0.398 27.34,6 12.24,7.598 20.4,25.187 20.4,50.789 0,43.59 -23.66,67.59 -59.98,67.59 -10.21,0 -18.77,-0.789 -23.66,-2 -1.23,-0.399 -2.45,-1.602 -2.45,-3.602 z m -31.42,28.398 c 0,52.782 0,62.379 -0.82,73.18 -0.81,10.801 -3.67,16.801 -16.32,19.199 -2.45,0.403 -6.52,0.801 -9.79,0.801 -2.86,0 -4.49,0.801 -4.49,2.402 0,1.598 1.22,2.797 4.9,2.797 17.55,0 42.43,-1.199 43.25,-1.199 3.67,0 31.41,1.199 42.84,1.199 22.85,0 47.73,-2 66.91,-15.199 7.76,-5.598 24.49,-21.598 24.49,-48.777 0,-22.012 -11.02,-50 -43.26,-75.602 29.79,-35.988 54.27,-65.59 75.08,-86.781 19.58,-19.598 31.83,-22.801 43.25,-24.399 2.86,-0.402 11.43,-0.8 12.65,-0.8 3.26,0 4.49,-1.192 4.49,-2.801 0,-2 -1.64,-2.801 -7.35,-2.801 h -28.55 c -19.18,0 -28.16,1.203 -37.13,4.813 -17.14,7.191 -29.39,25.187 -50.6,51.98 -15.92,19.199 -32.24,40.801 -39.17,49.199 -1.63,1.602 -2.45,2.391 -4.9,2.391 l -42.02,0.398 c -1.63,0 -2.04,-0.398 -2.04,-1.988 v -5.609 c 0,-31.992 0,-61.192 2.04,-75.582 1.22,-9.602 2.45,-17.602 15.91,-19.2 4.08,-0.402 8.57,-0.8 11.83,-0.8 3.67,0 5.3,-1.192 5.3,-2.399 0,-2 -1.63,-3.203 -5.71,-3.203 -21.21,0 -44.06,1.203 -45.69,1.203 -6.54,0 -24.48,-1.203 -35.5,-1.203 -4.08,0 -5.71,0.801 -5.71,3.203 0,1.207 2.45,2.399 4.89,2.399 2.86,0 5.71,0 8.97,0.8 6.95,1.2 9.39,5.602 10.62,15.2 2.04,14.398 1.63,47.191 1.63,77.191 v 59.988"
         style="fill:#5e5a57;fill-opacity:1;fill-rule:nonzero;stroke:none"
         transform="matrix(0.13333333,0,0,-0.13333333,0,604.8)" />
      <path
         id="path10"
         d="m 4899.25,311.809 c 18.77,16.402 63.24,57.992 81.6,77.589 19.59,21.192 21.22,23.192 21.22,27.59 0,2.801 -1.63,4.801 -6.52,6.403 -2.86,0.8 -4.5,1.597 -4.5,3.199 0,1.199 0.83,2.398 4.09,2.398 2.44,0 14.68,-1.199 27.74,-1.199 12.24,0 34.68,1.199 39.98,1.199 5.71,0 6.53,-0.797 6.53,-2.398 0,-1.602 -1.22,-2.801 -4.49,-3.199 -6.52,-0.403 -15.1,-2 -19.99,-4 -9.79,-3.192 -15.1,-7.602 -36.31,-26.403 -29.79,-26.386 -65.28,-60.386 -83.24,-76.379 22.03,-22.398 88.14,-86.39 105.28,-101.589 28.55,-25.59 42.43,-32.79 58.75,-36.391 4.49,-0.801 2.45,-0.399 9.38,-1.199 3.67,-0.391 5.71,-1.192 5.71,-3.2 0,-1.601 -2.04,-2.402 -6.52,-2.402 h -26.52 c -31.83,0 -39.99,3.602 -56.31,14.801 -18.36,12.801 -83.65,78.383 -115.88,115.582 v -31.59 c 0,-30.801 -0.41,-58.801 1.63,-73.191 1.63,-11.602 3.27,-16 13.88,-18.399 5.3,-1.203 13.86,-1.601 15.5,-1.601 3.68,-0.391 4.49,-1.192 4.49,-2.801 0,-1.598 -1.63,-2.801 -5.72,-2.801 -20.81,0 -44.47,1.203 -46.51,1.203 -1.22,0 -25.29,-1.203 -36.72,-1.203 -3.67,0 -6.53,0.801 -6.53,2.801 0,1.609 1.63,2.801 5.3,2.801 2.04,0 6.53,0.398 9.8,1.199 6.94,1.601 8.16,9.601 9.38,19.199 2.04,14.391 2.04,42.793 2.04,72.793 v 59.988 c 0,52.782 0,62.379 -0.81,73.18 -0.82,10.801 -3.27,16.801 -11.84,18.402 -4.08,0.797 -6.93,0.797 -9.38,1.2 -2.86,0.398 -4.49,1.199 -4.49,2.8 0,2 1.63,2.797 6.12,2.797 12.65,0 35.91,-1.199 37.13,-1.199 1.63,0 25.3,1.199 36.72,1.199 4.08,0 6.12,-0.797 6.12,-2.797 0,-1.601 -1.22,-2.402 -4.48,-2.8 -2.45,-0.403 -4.49,-0.403 -7.34,-0.801 -11.84,-1.602 -13.07,-7.59 -13.88,-19.199 -0.82,-10.801 -0.41,-20 -0.41,-72.782 v -18.8"
         style="fill:#5e5a57;fill-opacity:1;fill-rule:nonzero;stroke:none"
         transform="matrix(0.13333333,0,0,-0.13333333,0,604.8)" />
      <path
         id="path11"
         d="m 5151.8,330.609 c 0,52.379 0,61.981 -0.81,72.782 -0.82,11.199 -3.68,16.8 -15.51,19.199 -2.45,0.398 -6.53,0.801 -9.8,0.801 -2.85,0 -5.3,1.199 -5.3,2.398 0,2.402 2.04,3.199 6.12,3.199 8.16,0 19.17,-0.797 42.03,-1.199 2.04,0 74.66,0 82.83,0.402 8.15,0.399 12.64,0.797 15.91,2 2.45,0.797 2.86,1.2 4.49,1.2 0.81,0 1.63,-0.801 1.63,-2.801 0,-2.399 -2.45,-8 -3.26,-18 -0.41,-6.801 -0.82,-13.192 -1.23,-20.789 0,-3.602 -0.81,-6.012 -2.85,-6.012 -2.05,0 -2.87,1.609 -2.87,4.41 -0.4,5.992 -1.63,10 -2.85,12.789 -2.45,8 -6.12,10.801 -26.52,12 -5.3,0.403 -45.69,0.801 -46.51,0.801 -1.23,0 -2.05,-0.801 -2.05,-3.199 v -90.781 c 0,-2.399 0.41,-4 2.46,-4 4.89,0 46.51,0.402 55.07,1.203 9.39,0.398 15.51,1.597 18.77,5.988 1.63,2.41 2.86,3.211 4.5,3.211 0.81,0 1.63,-0.402 1.63,-2.41 0,-1.992 -1.63,-9.602 -2.86,-21.192 -1.23,-11.199 -1.23,-19.199 -1.64,-24.39 -0.4,-3.207 -1.22,-4.41 -2.85,-4.41 -2.04,0 -2.45,2.41 -2.45,5.211 0,2.39 -0.41,6.402 -1.22,9.589 -1.63,5.2 -4.08,10.801 -19.59,12 -9.38,0.801 -42.43,1.602 -48.95,1.602 -2.46,0 -2.87,-1.199 -2.87,-2.801 v -29.191 c 0,-12.399 -0.41,-47.598 0,-54.391 0.82,-14.797 2.87,-22.398 11.43,-26 6.12,-2.797 15.92,-3.598 29.79,-3.598 7.75,0 20.81,-0.402 31,2.399 12.25,3.601 15.1,11.601 18.37,26.391 0.81,4.011 2.03,5.601 3.67,5.601 2.44,0 2.44,-3.59 2.44,-6 0,-2.801 -3.26,-27.992 -4.48,-34.793 -1.63,-8 -4.49,-8.797 -17.96,-8.797 -26.92,0 -38.35,0.797 -52.62,0.797 -14.29,0.402 -33.06,1.203 -48.16,1.203 -9.38,0 -17.13,-1.203 -26.92,-1.203 -3.67,0 -5.72,0.801 -5.72,2.801 0,1.609 1.64,2.801 3.68,2.801 2.45,0 5.3,0.398 8.16,1.199 7.34,1.601 12.24,6.801 13.06,31.601 0.4,13.59 0.81,29.989 0.81,60.391 v 59.988"
         style="fill:#5e5a57;fill-opacity:1;fill-rule:nonzero;stroke:none"
         transform="matrix(0.13333333,0,0,-0.13333333,0,604.8)" />
      <path
         id="path12"
         d="m 5357.83,176.238 c -5.3,2.391 -5.3,3.992 -5.3,13.59 0,18.402 1.22,31.992 1.63,37.602 0.41,3.59 1.22,5.59 3.26,5.59 2.04,0 2.86,-1.2 2.86,-4 0,-2.391 0,-7.2 1.22,-11.989 5.31,-26 29.38,-36 53.05,-36 33.86,0 50.19,22.789 50.19,42.789 0,22.801 -10.62,36.801 -40.4,60.391 l -16.32,12.41 c -39.17,30.789 -47.34,51.981 -47.34,75.578 0,36.789 29.8,61.582 75.49,61.582 14.28,0 24.07,-1.191 33.05,-3.191 7.75,-1.602 11.01,-2 13.88,-2 2.85,0 3.67,-0.801 3.67,-2.399 0,-1.601 -1.63,-15.601 -1.63,-38.793 0,-6 -0.82,-8.398 -2.86,-8.398 -2.05,0 -2.45,1.602 -2.86,4.391 -0.41,3.609 -1.22,12.007 -4.9,18.8 -2.03,3.61 -11.41,18.797 -45.69,18.797 -24.48,0 -42.84,-14.386 -42.84,-38.398 0,-18.789 9.79,-30.391 43.66,-55.578 l 9.37,-7.203 c 42.45,-31.989 53.46,-53.188 53.46,-81.59 0,-14.399 -6.12,-39.989 -31.01,-56.789 -15.91,-10 -35.49,-13.989 -55.08,-13.989 -17.14,0 -33.05,1.989 -48.56,8.797"
         style="fill:#5e5a57;fill-opacity:1;fill-rule:nonzero;stroke:none"
         transform="matrix(0.13333333,0,0,-0.13333333,0,604.8)" />
      <path
         id="path13"
         d="m 5671.99,270.621 c 0,-30.801 0.41,-59.191 2.04,-73.992 1.23,-9.598 2.04,-15.199 12.25,-17.598 4.89,-1.203 12.65,-1.601 15.91,-1.601 3.26,0 4.9,-1.192 4.9,-2.399 0,-2 -1.23,-3.203 -5.31,-3.203 -20.8,0 -44.88,1.203 -46.52,1.203 -1.63,0 -25.7,-1.203 -36.3,-1.203 -4.5,0 -6.13,0.801 -6.13,2.801 0,1.211 1.23,2.801 4.49,2.801 3.27,0 5.72,0 8.98,0.398 7.75,1.203 8.97,6.004 10.6,19.602 1.64,14.39 1.64,43.191 1.64,73.191 v 142.77 c -13.46,0 -35.09,0 -51.41,-0.403 -26.11,-0.398 -31.83,-4.398 -37.54,-12.797 -3.67,-5.601 -5.3,-10.39 -6.12,-12.39 -1.22,-2.801 -2.04,-3.211 -3.67,-3.211 -1.64,0 -2.05,1.609 -2.05,3.609 -0.4,2.391 5.72,28.789 8.17,39.59 1.22,4.801 2.45,6.391 3.67,6.391 2.86,0 10.61,-3.59 17.95,-4.391 14.29,-1.598 25.71,-2 26.11,-2 h 133.84 c 11.43,0 23.66,0.801 29.38,2 5.3,1.199 6.52,1.602 7.75,1.602 1.63,0 2.44,-2 2.44,-3.602 0,-11.199 -0.81,-37.59 -0.81,-40.789 0,-3.609 -1.63,-4.809 -2.86,-4.809 -2.03,0 -2.85,1.598 -2.85,4.809 0,1.199 0,1.602 -0.41,5.59 -1.63,16 -6.94,20 -48.15,20.398 -15.5,0 -28.15,0.403 -39.99,0.403 v -142.77"
         style="fill:#5e5a57;fill-opacity:1;fill-rule:nonzero;stroke:none"
         transform="matrix(0.13333333,0,0,-0.13333333,0,604.8)" />
      <path
         id="path14"
         d="m 5847.43,330.609 c 0,52.379 0,61.981 -0.81,72.782 -0.82,11.199 -3.67,16.8 -15.51,19.199 -2.45,0.398 -6.53,0.801 -9.79,0.801 -2.85,0 -5.3,1.199 -5.3,2.398 0,2.402 2.04,3.199 6.12,3.199 8.15,0 19.17,-0.797 42.02,-1.199 2.04,0 74.67,0 82.83,0.402 8.16,0.399 12.65,0.797 15.91,2 2.45,0.797 2.86,1.2 4.49,1.2 0.81,0 1.63,-0.801 1.63,-2.801 0,-2.399 -2.45,-8 -3.26,-18 -0.41,-6.801 -0.82,-13.192 -1.23,-20.789 0,-3.602 -0.81,-6.012 -2.85,-6.012 -2.04,0 -2.86,1.609 -2.86,4.41 -0.4,5.992 -1.63,10 -2.85,12.789 -2.45,8 -6.13,10.801 -26.53,12 -5.3,0.403 -45.69,0.801 -46.51,0.801 -1.22,0 -2.04,-0.801 -2.04,-3.199 v -90.781 c 0,-2.399 0.41,-4 2.45,-4 4.89,0 46.51,0.402 55.08,1.203 9.38,0.398 15.51,1.597 18.77,5.988 1.63,2.41 2.86,3.211 4.49,3.211 0.81,0 1.63,-0.402 1.63,-2.41 0,-1.992 -1.63,-9.602 -2.86,-21.192 -1.22,-11.199 -1.22,-19.199 -1.63,-24.39 -0.4,-3.207 -1.22,-4.41 -2.85,-4.41 -2.04,0 -2.45,2.41 -2.45,5.211 0,2.39 -0.41,6.402 -1.22,9.589 -1.64,5.2 -4.09,10.801 -19.59,12 -9.39,0.801 -42.44,1.602 -48.96,1.602 -2.45,0 -2.86,-1.199 -2.86,-2.801 v -29.191 c 0,-12.399 -0.41,-47.598 0,-54.391 0.82,-14.797 2.86,-22.398 11.43,-26 6.12,-2.797 15.9,-3.598 29.78,-3.598 7.75,0 20.81,-0.402 31.01,2.399 12.24,3.601 15.09,11.601 18.37,26.391 0.81,4.011 2.04,5.601 3.67,5.601 2.44,0 2.44,-3.59 2.44,-6 0,-2.801 -3.26,-27.992 -4.48,-34.793 -1.63,-8 -4.5,-8.797 -17.96,-8.797 -26.93,0 -38.35,0.797 -52.63,0.797 -14.29,0.402 -33.06,1.203 -48.15,1.203 -9.39,0 -17.13,-1.203 -26.93,-1.203 -3.67,0 -5.71,0.801 -5.71,2.801 0,1.609 1.63,2.801 3.67,2.801 2.45,0 5.3,0.398 8.17,1.199 7.34,1.601 12.23,6.801 13.05,31.601 0.4,13.59 0.81,29.989 0.81,60.391 v 59.988"
         style="fill:#5e5a57;fill-opacity:1;fill-rule:nonzero;stroke:none"
         transform="matrix(0.13333333,0,0,-0.13333333,0,604.8)" />
      <path
         id="path15"
         d="m 6105.69,302.211 c 0,-2 0.41,-4 2.04,-4.801 5.31,-2.801 21.63,-5.199 36.31,-5.199 8.58,0 18.77,0.398 27.35,6 12.23,7.598 20.4,25.187 20.4,50.789 0,43.59 -23.66,67.59 -59.98,67.59 -10.21,0 -18.77,-0.789 -23.66,-2 -1.24,-0.399 -2.46,-1.602 -2.46,-3.602 z m -31.41,28.398 c 0,52.782 0,62.379 -0.82,73.18 -0.81,10.801 -3.67,16.801 -16.32,19.199 -2.45,0.403 -6.52,0.801 -9.8,0.801 -2.85,0 -4.48,0.801 -4.48,2.402 0,1.598 1.22,2.797 4.89,2.797 17.55,0 42.44,-1.199 43.26,-1.199 3.67,0 31.41,1.199 42.84,1.199 22.85,0 47.73,-2 66.91,-15.199 7.76,-5.598 24.48,-21.598 24.48,-48.777 0,-22.012 -11.01,-50 -43.25,-75.602 29.79,-35.988 54.27,-65.59 75.08,-86.781 19.58,-19.598 31.83,-22.801 43.25,-24.399 2.85,-0.402 11.43,-0.8 12.65,-0.8 3.26,0 4.49,-1.192 4.49,-2.801 0,-2 -1.64,-2.801 -7.35,-2.801 h -28.56 c -19.18,0 -28.15,1.203 -37.13,4.813 -17.13,7.191 -29.38,25.187 -50.59,51.98 -15.92,19.199 -32.24,40.801 -39.17,49.199 -1.63,1.602 -2.45,2.391 -4.9,2.391 l -42.03,0.398 c -1.63,0 -2.04,-0.398 -2.04,-1.988 v -5.609 c 0,-31.992 0,-61.192 2.04,-75.582 1.23,-9.602 2.46,-17.602 15.91,-19.2 4.09,-0.402 8.58,-0.8 11.84,-0.8 3.67,0 5.3,-1.192 5.3,-2.399 0,-2 -1.63,-3.203 -5.71,-3.203 -21.21,0 -44.06,1.203 -45.69,1.203 -6.54,0 -24.49,-1.203 -35.5,-1.203 -4.08,0 -5.72,0.801 -5.72,3.203 0,1.207 2.46,2.399 4.9,2.399 2.86,0 5.71,0 8.97,0.8 6.95,1.2 9.39,5.602 10.62,15.2 2.04,14.398 1.63,47.191 1.63,77.191 v 59.988"
         style="fill:#5e5a57;fill-opacity:1;fill-rule:nonzero;stroke:none"
         transform="matrix(0.13333333,0,0,-0.13333333,0,604.8)" />
      <path
         id="path16"
         d="m 1683.44,3724.48 c 13.56,96.44 70.58,279.26 114.53,358.65 46.71,84.39 218.5,301.39 322.48,287.82 103.98,-13.56 111.51,-52.74 90.42,-106.99 -21.1,-54.25 -48.22,-153.71 28.63,-149.18 76.85,4.52 197.41,90.41 218.5,168.77 21.1,78.36 1.51,203.44 -143.16,241.11 -144.66,37.68 -263.71,-19.59 -409.88,-159.73 -146.18,-140.15 -253.17,-301.39 -308.92,-512.36 -55.76,-210.97 -103.98,-470.17 -125.08,-892.11 -20.17,-403.49 -37.67,-1305.76 -37.67,-1432.34 0,-126.58 4.52,-619.358 -221.52,-877.042 C 985.727,393.391 801.879,298.461 471.867,377.57 141.848,456.68 110.133,802.711 125.27,956.238 c 15.82,160.482 45.203,415.912 313.441,566.612 255.586,143.58 642.969,109.63 709.269,108.87 54.67,-0.62 124.74,-23.36 145.05,-9.04 22.94,16.17 21.47,46.32 21.47,59.9 0,21.48 9.8,41.82 -8.29,56.14 -16.74,13.25 -182.22,9.04 -302.02,0 C 889.145,1730.03 586.23,1724.8 339.254,1571.07 117.734,1433.18 -5.5625,1139.41 0.191406,843.219 4.71094,610.398 97.3867,271.332 434.191,211.43 c 384.407,-68.371 726.719,77.992 892.859,294.992 166.14,216.988 266.73,482.586 276.9,905.278 10.17,422.7 13.56,1282.79 13.56,1318.95 0,36.17 7.16,357.9 13.19,516.13 4.42,116.11 40.56,391.07 52.74,477.7"
         style="fill:#ab896f;fill-opacity:1;fill-rule:nonzero;stroke:none"
         transform="matrix(0.13333333,0,0,-0.13333333,0,604.8)" />
      <path
         id="path17"
         d="m 1377.79,1161.06 c 0,0 5.52,173.63 5.56,174.92 3.69,97.96 4.9,218.14 4.9,218.14 0,101.49 2.51,351.03 7.76,629.54 5.22,277.18 13.15,583.06 24,800.27 22.93,458.55 88.84,685.16 135.14,860.35 13.24,50.13 39.9,124.08 70.63,184.98 31.37,62.15 62.94,113.02 62.94,113.02 -22.28,-38.73 -38.68,-75.56 -57.85,-115.28 -31.12,-64.49 -53.85,-130.32 -65.93,-176.69 -45.5,-174.65 -100.71,-410.46 -123.57,-867.62 -10.81,-216.28 -19.4,-522.62 -27.67,-799.43 -8.38,-280.22 -16.37,-530.23 -16.37,-632.05 0,0 0.08,-128.33 -6.87,-222.24 -0.32,-5.2 -8.17,-129.73 -12.67,-167.91"
         style="fill:#ab896f;fill-opacity:1;fill-rule:nonzero;stroke:none"
         transform="matrix(0.13333333,0,0,-0.13333333,0,604.8)" />
      <path
         id="path18"
         d="m 1350.22,1297.55 -0.85,256.28 c 0,101.37 1.14,350.06 6.43,627.49 5.3,277.97 13.32,585.07 24.21,802.61 22.97,458.5 88.5,694.19 136.19,869.02 24.25,88.91 97.72,214.35 97.72,214.35 -26.53,-58.57 -74.28,-158.25 -92.45,-227.08 -46.1,-174.51 -101.27,-401.54 -124.17,-858.66 -10.88,-217.21 -18.9,-523.64 -26.17,-800.56 -7.27,-276.92 -13.83,-533.96 -13.83,-635.37 0,0 -0.13,-154.17 -7.08,-248.08"
         style="fill:#ab896f;fill-opacity:1;fill-rule:nonzero;stroke:none"
         transform="matrix(0.13333333,0,0,-0.13333333,0,604.8)" />
      <path
         id="path19"
         d="m 2369.1,850.75 c 78.36,227.55 58.77,412.9 -30.14,581.68 -88.91,168.78 -230.57,340.56 -301.39,415.91 -70.83,75.35 -192.89,206.45 -128.09,358.65 64.8,152.2 221.31,236.92 277.28,299.89 60.28,67.81 152.2,183.84 106.99,272.75 -45.21,88.91 -156.72,150.69 -271.25,105.49 -114.53,-45.21 -195.9,-84.39 -227.55,-40.69 -31.64,43.7 -37.67,152.2 76.86,167.27 114.52,15.07 253.26,-18.83 313.44,-46.72 61.79,-28.63 168.02,-103.22 203.44,-183.84 29.32,-66.76 74.59,-209.46 -71.59,-364.68 -146.17,-155.21 -253.91,-197.41 -275.01,-281.8 -21.1,-84.39 -33.91,-150.69 143.91,-333.03 177.82,-182.34 354.88,-386.53 388.04,-658.53 C 2607.1,871.852 2540.88,700.051 2314.84,395.66 2088.8,91.2617 1728.31,37.3711 1608.09,14.3984 1473.97,-11.2188 1280.36,1.14063 1172.59,21.9414 1086.69,38.5117 952.578,85.2305 939.016,94.2695 925.449,103.32 916.41,118.379 951.07,145.5 c 34.657,27.129 102.47,48.23 114.53,52.75 12.05,4.52 39.18,6.02 81.37,-15.07 42.2,-21.09 180.83,-79.86 337.56,-61.789 166.86,19.257 356.13,68.75 494.27,168.781 174.8,126.578 311.93,333.039 390.3,560.578"
         style="fill:#ab896f;fill-opacity:1;fill-rule:nonzero;stroke:none"
         transform="matrix(0.13333333,0,0,-0.13333333,0,604.8)" />
      <path
         id="path20"
         d="m 2983.45,1083.57 c -35.12,-14.32 -101.24,-55.75 -144.94,-103.98 -42.3,-46.668 -106.24,-122.809 -119.53,-178.57 -12.11,-50.848 -23.35,-152.2 27.13,-168.02 50.48,-15.832 112.26,27.121 136.38,46.711 24.11,19.59 81.37,80.629 113.77,111.519 32.4,30.891 146.92,209.46 157.48,244.12 10.54,34.66 -45.21,2.26 -45.21,2.26 0,0 -94.19,-146.169 -95.69,-149.938 -1.51,-3.774 -77.51,-95.313 -105.77,-122.813 -25.31,-24.64 -68.56,-51.609 -87.88,-38.429 -21.46,14.648 -7.19,90.191 9.8,124.32 20.44,41.059 85.89,119.051 125.07,150.69 35.61,28.76 82.88,40.69 111.52,40.69 28.63,0 86.65,0 94.93,24.12 8.29,24.11 -21.85,47.47 -58.77,43.7 -36.92,-3.77 -84.52,-12.61 -118.29,-26.38"
         style="fill:#ab896f;fill-opacity:1;fill-rule:nonzero;stroke:none"
         transform="matrix(0.13333333,0,0,-0.13333333,0,604.8)" />
      <path
         id="path21"
         d="m 3625.88,1010.86 c 0,0 18.36,-29.008 31.17,-46.329 12.81,-17.34 -22.5,-74.972 -22.5,-74.972 0,0 -58.3,-73.09 -95.7,-106.239 -36.02,-31.941 -137.32,-102.859 -188.74,-125.449 -47.6,-20.93 -145.9,-50.492 -194.87,-47.473 -48.98,3.012 -104.73,15.821 -133.36,48.223 -28.64,32.399 -32.4,122.809 -30.14,138.629 2.26,15.828 45.2,200.43 54.25,217.76 9.04,17.33 22.6,34.65 48.22,51.24 25.62,16.57 21.1,0.75 21.1,0.75 0,0 45.96,39.93 65.55,53.49 19.59,13.57 57.26,34.66 103.22,30.89 45.96,-3.76 66.31,-27.87 73.09,-55 6.78,-27.13 2.45,-84.95 -20.91,-120.36 -23.35,-35.418 -80.39,-89.692 -105.67,-107.192 -22.32,-15.437 -82.12,-38.328 -105.11,-42 -21.69,-3.469 -53.87,-9.988 -58.39,3.582 -4.53,13.559 0,45.211 14.31,43.699 14.32,-1.507 33.11,-7.738 55,-3.007 22.71,4.886 73.34,38.109 95.7,60.269 22.79,22.609 51.33,51.527 61.78,74.589 10.74,23.74 14.31,64.81 6.78,78.37 -5.69,10.25 -42.19,9.03 -58.77,-6.03 -16.21,-14.73 -55.99,-70.27 -71.58,-92.679 -12.06,-17.32 -78.36,-134.113 -79.87,-190.621 -1.5,-56.52 8.29,-117.539 61.79,-125.828 53.49,-8.301 135.62,6.019 219.25,51.988 83.64,45.949 167.48,119.039 192.99,146.918 49.95,54.57 61.41,142.782 61.41,142.782"
         style="fill:#ab896f;fill-opacity:1;fill-rule:nonzero;stroke:none"
         transform="matrix(0.13333333,0,0,-0.13333333,0,604.8)" />
      <path
         id="path22"
         d="m 3630.3,1097.51 c 0,0 5,73.09 9.04,96.07 3.4,19.31 30.24,43.7 77.99,48.6 31.56,3.24 64.42,-6.78 56.51,-38.42 -7.91,-31.66 -58.21,-220.401 -53.69,-220.401 4.52,0 39.67,59.331 57.45,85.141 23.37,33.91 99.09,109.26 133,130.17 33.9,20.91 88.72,45.2 123.18,18.64 34.47,-26.55 51.15,-77.63 64.8,-100.59 16.58,-27.88 57.27,-45.77 81,-48.59 23.73,-2.83 -30.85,-55.05 -45.2,-54.25 -20.36,1.13 -51.33,35.03 -68.2,59.89 -16.26,23.98 -40.88,83.08 -75.34,81.38 -34.47,-1.69 -104.74,-59.52 -147.69,-114.52 -43.05,-55.15 -99.45,-134.868 -130.34,-199.681 -30.53,-64.031 -77.99,-196.648 -85.9,-207.379 -7.91,-10.742 -39.56,-6.218 -45.21,3.391 -5.65,9.598 21.48,205.129 25.43,222.641 3.96,17.519 15.74,141.088 18,163.698 2.26,22.6 5.17,74.21 5.17,74.21"
         style="fill:#ab896f;fill-opacity:1;fill-rule:nonzero;stroke:none"
         transform="matrix(0.13333333,0,0,-0.13333333,0,604.8)" />
      <path
         id="path23"
         d="m 4158.86,1150.63 c 15.07,24.86 45.21,69.32 61.03,82.13 15.82,12.81 31.64,17.33 54.25,15.07 22.61,-2.26 69.33,-8.1 79.02,-23.73 8.68,-13.98 5.84,-25.62 -15.25,-48.98 -21.1,-23.36 -87.03,-123.57 -109.63,-159.73 -22.16,-35.441 -80.32,-148.179 -90.52,-182.718 -13.56,-45.973 -32.57,-132.731 -6.78,-139.391 20.45,-5.281 62.33,11.129 85.99,39.18 27.98,33.148 133.27,169.527 152.1,198.91 18.84,29.391 77.61,104.739 87.4,119.809 9.8,15.07 35.42,16.57 45.97,9.79 10.55,-6.79 11.3,-35.42 10.55,-76.849 -0.75,-41.449 0.75,-138.652 8.29,-180.832 7.53,-42.199 25.05,-97.949 54.43,-109.258 29.39,-11.301 84.2,3.02 112.08,27.129 27.88,24.11 59.15,125.078 68.2,185.348 9.03,60.273 11.68,200.422 13.18,218.502 1.5,18.09 -2.27,43.71 23.36,66.31 25.61,22.6 64.04,35.41 81.37,35.41 17.33,0 36.17,-6.02 27.88,-41.44 -8.29,-35.41 -39.93,-204.938 -45.96,-238.849 -6.03,-33.91 -22.88,-126.203 -13.94,-129.222 4.79,-1.61 55.76,68.383 70.07,90.992 14.32,22.598 111.14,152.379 132.23,182.519 21.1,30.14 58.21,79.12 69.51,89.28 11.3,10.18 41.25,13.57 59.34,0 18.08,-13.56 28.25,-33.9 27.13,-91.54 -1.14,-57.63 -11.31,-229.431 -10.18,-239.599 1.13,-10.172 -10.17,-114.152 -21.47,-132.23 -11.3,-18.09 -46.34,-66.68 -77.98,-82.512 -31.65,-15.82 -45.59,-11.68 -52.38,-10.168 -6.77,1.5 3.77,45.59 12.82,66.68 9.04,21.089 24.86,114.898 29.38,153.328 4.52,38.429 21.41,208.111 19.59,219.261 -1.4,8.66 -13.08,-1.89 -17.33,-8.28 -4.09,-6.19 -162.18,-226.989 -184.79,-257.501 -21.31,-28.769 -81.18,-114.719 -94.74,-138.078 -13.57,-23.359 -42.2,-57.269 -65.56,-64.043 -23.35,-6.789 -45.21,6.774 -42.19,30.133 3.01,23.359 12.53,41.82 6.4,43.711 -4.61,1.406 -39.37,-26.004 -67.25,-37.301 -27.87,-11.301 -92.48,-13.562 -118.1,-4.519 -25.62,9.039 -65.55,33.339 -80.81,74.019 -15.72,41.918 -34.37,161.059 -36.35,172.738 -1.77,10.403 -9.33,7.153 -18.09,-3.769 -11.25,-14.02 -109.53,-168.02 -133.36,-193.641 -21.82,-23.449 -57.26,-55.758 -125.83,-50.48 -68.57,5.269 -94.19,83.633 -93.43,128.09 1.02,60.269 25.62,170.281 51.24,235.832 25.61,65.559 64.04,135.629 79.11,160.489"
         style="fill:#ab896f;fill-opacity:1;fill-rule:nonzero;stroke:none"
         transform="matrix(0.13333333,0,0,-0.13333333,0,604.8)" />
      <path
         id="path24"
         d="m 5128.57,779.93 c 0,0 82.89,91.539 116.23,130.531 30.75,35.969 129.98,164.459 154.27,201.739 24.3,37.3 54.25,82.51 76.85,91.56 22.61,9.03 50.86,4.52 40.69,-61.04 -10.17,-65.55 -53.12,-263.341 -49.73,-319.841 3.39,-56.52 22.6,-117.539 71.21,-115.289 48.59,2.262 117.89,45.879 164.35,76.859 49.73,33.153 171.79,102.469 230.56,113.02 54.54,9.793 157.48,14.312 250.15,-42.199 92.68,-56.508 193.66,-125.86 264.74,-173.668 53.22,-35.793 199.78,-142.793 277.76,-233.204 77.98,-90.418 158.6,-203.058 176.68,-261.828 18.09,-58.769 43.33,-169.8981 3.77,-180.08172 -39.56,-10.16797 -101.33,-3.38672 -121.69,62.16012 -20.34,65.5506 -108.39,266.3636 -226.03,396.3316 -113.48,125.372 -325.5,284.809 -375.23,316.45 -49.73,31.648 -126.58,67.808 -179.32,69.32 -46.45,1.328 -117.55,-19.59 -150.69,-37.672 -30,-16.367 -100.97,-66.308 -137.14,-93.437 -28.16,-21.11 -88.16,-70.45 -158.23,-87.403 -70.07,-16.949 -144.36,-2.648 -167.74,53.313 -34.47,82.508 -25.08,184.269 -23.17,214.738 2.26,36.172 14.13,79.691 10.74,85.332 -3.4,5.649 -47.47,-49.16 -74.03,-78.543 -26.57,-29.387 -119.7,-182.527 -144.58,-200.617 -24.86,-18.082 -36.44,57.648 -30.42,73.469"
         style="fill:#ab896f;fill-opacity:1;fill-rule:nonzero;stroke:none"
         transform="matrix(0.13333333,0,0,-0.13333333,0,604.8)" />
      <path
         id="path25"
         d="m 6921.55,64.1406 c -3.01,24.0977 -72.48,407.7774 -84.39,485.2184 -18.08,117.551 -100.73,705.481 -119.04,1115.141 -12.06,269.74 16.57,614.83 19.59,747.44 2.87,126.55 9.04,578.66 12.05,654.01 3.01,75.34 -1.89,181.96 9.79,224.53 7.19,26.2 27.88,53.12 48.98,32.03 21.1,-21.1 91.55,107.36 82.51,154.08 -9.05,46.71 -80.33,66.75 -118.68,8.29 -38.42,-58.59 -97.19,-221.53 -106.24,-331.53 -9.04,-110 -33.9,-293.85 -30.89,-351.12 3.01,-57.26 15.07,-156.72 18.08,-320.97 3.02,-164.26 -39.43,-516.71 -36.16,-684.16 3.77,-192.88 20.34,-489.75 38.43,-678.11 16.27,-169.51 85.13,-640.451 118.29,-733.881 33.15,-93.437 147.68,-320.9684 147.68,-320.9684"
         style="fill:#ab896f;fill-opacity:1;fill-rule:nonzero;stroke:none"
         transform="matrix(0.13333333,0,0,-0.13333333,0,604.8)" />
      <path
         id="path26"
         d="m 6723.2,3377.13 c 1.51,4.52 43.51,113.58 77.8,154.46 33.55,40.01 67.81,61.79 105.48,46.71 37.67,-15.06 63.3,-42.19 55.76,-188.36 -7.54,-146.18 -114.53,-408.38 -153.71,-491.26 -39.18,-82.88 -229.06,-423.45 -281.8,-507.84 -47.29,-75.65 -323.99,-414.41 -396.32,-471.67 -72.33,-57.26 -248.64,-194.4 -556.06,-218.51 -306.77,-24.05 -488.25,15.08 -723.33,-7.53 -228.18,-21.94 -738.4,-81.38 -1140.75,-87.4 -397.81,-5.96 -831.56,7.67 -943.07,6.16 -111.52,-1.5 -265.87,-7.3 -291.86,-4.66 -21.72,2.21 -46.51,38.62 -55.01,51.99 -6.45,10.14 -33.53,43.7 -31.27,59.53 0.8,5.59 5.42,19.47 55.76,16.58 52.37,-3.02 233.55,-12.55 338.68,-16.58 108.13,-4.15 343.28,-15.07 584.69,-15.07 226.04,0 548.59,-16.19 810.74,6.02 266.72,22.61 797.12,92.04 965.94,98.71 171.79,6.78 400.54,-5.74 495.03,4.52 97.2,10.55 319.48,3.01 479.96,208.72 160.49,205.69 358.3,484.6 417.42,605.03 60.65,123.56 134.5,306.28 148.05,356.01 13.57,49.73 79.12,161.62 79.12,161.62 0,0 34.8,71.17 42.95,91.54 8.28,20.73 37.3,61.79 1.13,86.66 -36.17,24.86 -85.33,54.62 -85.33,54.62"
         style="fill:#ab896f;fill-opacity:1;fill-rule:nonzero;stroke:none"
         transform="matrix(0.13333333,0,0,-0.13333333,0,604.8)" />
      <path
         id="path27"
         d="m 4114.16,2137.99 c 0,0 -39.97,-5.83 -52.77,-13.77 -12.82,-7.94 -40.61,-39.37 -30.34,-62.79 10.27,-23.42 25.16,-30.86 79.7,-27.88 54.55,2.97 105.77,9.23 152.24,7.54 46.39,-1.69 110.23,1.88 145.19,4.41 34.96,2.53 55.32,15.7 57.06,40.89 1.75,25.21 -73.11,42.44 -116.49,43.2 -43.38,0.76 -145.94,9.31 -165.52,8.87 -19.59,-0.45 -69.07,-0.47 -69.07,-0.47"
         style="fill:#ab896f;fill-opacity:1;fill-rule:nonzero;stroke:none"
         transform="matrix(0.13333333,0,0,-0.13333333,0,604.8)" />
      <path
         id="path28"
         d="m 4628.83,2152.67 c 0,0 -37.76,-0.18 -45.86,-0.58 -8.11,-0.4 -84.84,-1.09 -95.67,-37.21 -10.83,-36.12 -6.31,-53.33 8.87,-60.15 15.19,-6.82 77.63,-5.99 112.49,2.73 34.88,8.72 77.55,12.71 120.48,17.07 42.93,4.34 101.86,0.9 120.47,4.06 18.61,3.16 26.98,24.43 16.14,42.78 -12.17,20.57 -48.34,27.34 -89.56,30.6 -42.49,3.36 -147.36,0.7 -147.36,0.7"
         style="fill:#ab896f;fill-opacity:1;fill-rule:nonzero;stroke:none"
         transform="matrix(0.13333333,0,0,-0.13333333,0,604.8)" />
      <path
         id="path29"
         d="m 5013.45,2159.72 c 0,0 -48.65,-2.37 -72.01,-6.98 -24.25,-4.78 -40.12,-10.3 -44.46,-22.6 -4.94,-13.99 -4.76,-44.62 1.95,-49.89 8.39,-6.61 39.71,-10.3 78.13,-10.45 40.03,-0.14 121.69,7.86 190.8,6.22 34.99,-0.83 51.52,-0.18 78.6,7.05 29.52,7.89 45.79,21.82 41.48,36.86 -4.43,15.49 -39.09,29.8 -87.71,32.81 -69.32,4.3 -52.87,3.13 -102.91,5.4 -50.04,2.28 -83.87,1.58 -83.87,1.58"
         style="fill:#ab896f;fill-opacity:1;fill-rule:nonzero;stroke:none"
         transform="matrix(0.13333333,0,0,-0.13333333,0,604.8)" />
      <path
         id="path30"
         d="m 5165.01,1780.95 c 0,0 -18.09,80.79 -21.09,135.73 -3.02,54.94 21.84,182.59 17.32,194.71 -4.52,12.12 -36.71,39.59 -60.82,43.62 -24.11,4.04 -75.35,4.85 -75.35,-16.96 0,-21.81 0.75,-87.25 0.75,-87.25 0,0 24.11,-241.58 33.15,-267.43 9.05,-25.85 106.04,-2.42 106.04,-2.42"
         style="fill:#ab896f;fill-opacity:1;fill-rule:nonzero;stroke:none"
         transform="matrix(0.13333333,0,0,-0.13333333,0,604.8)" />
      <path
         id="path31"
         d="m 4652.32,1739.76 -13.55,119.92 -19.59,171.62 c 0,0 -13.56,66.17 -13.56,73.75 0,7.58 3,12.41 21.09,15.16 18.09,2.76 87.95,-6.89 116.58,-17.23 28.63,-10.34 3.02,-50.31 3.02,-54.45 0,-4.13 -14.32,-143.7 -11.31,-178.85 3.02,-35.15 20.35,-119.58 21.86,-126.47 1.5,-6.9 -104.54,-3.45 -104.54,-3.45"
         style="fill:#ab896f;fill-opacity:1;fill-rule:nonzero;stroke:none"
         transform="matrix(0.13333333,0,0,-0.13333333,0,604.8)" />
      <path
         id="path32"
         d="m 4208.62,1973.97 c 0,0 10.99,-265.09 26.06,-281.49 15.08,-16.42 90.96,0.82 90.96,4.92 0,4.1 -7.52,87.78 -7.52,87.78 0,0 1.5,210.87 1.5,241.22 0,30.36 21.68,48.47 18.67,57.5 -3.02,9.03 -59.47,33.47 -77.56,37.58 -18.07,4.1 -70.82,6.9 -70.82,-16.89 0,-23.79 15.71,-105.18 18.71,-130.62"
         style="fill:#ab896f;fill-opacity:1;fill-rule:nonzero;stroke:none"
         transform="matrix(0.13333333,0,0,-0.13333333,0,604.8)" />
    </g>
  </g>
</svg>
